# xmcd
#
# Track frame offsets:
#	150
#	19516
#	32751
#	52793
#	69206
#	90610
#	111161
#	132325
#	152612
#	176571
#	195849
#	208639
#
# Disc length: 2955 seconds
#
# Revision: 0
# Processed by: cddbd v1.5.2PL0 Copyright (c) Steve Scherf et al.
# Submitted via: EasyCDDAExtractor 16.0.4.1
#
DISCID=8d0b890c
DTITLE=Charlie Musselwhite - one night in America
DYEAR=2002
DGENRE=Blues
TTITLE0=Trail of tears
TTITLE1=Cold grey light of down
TTITLE2=Blues overtook me
TTITLE3=In a town this size
TTITLE4=Walking alone
TTITLE5=Rank strangers to me
TTITLE6=One time one night
TTITLE7=In your darkest hour
TTITLE8=Big river
TTITLE9=Ain't time?
TTITLE10=I'll meet you over there
TTITLE11=Ain't that lovin you baby
EXTD=
EXTT0=
EXTT1=
EXTT2=
EXTT3=
EXTT4=
EXTT5=
EXTT6=
EXTT7=
EXTT8=
EXTT9=
EXTT10=
EXTT11=
PLAYORDER=
